<svg width="48" height="48" viewBox="0 0 48 48" fill="none" xmlns="http://www.w3.org/2000/svg">
<rect width="48" height="48" rx="13" fill="#33D9B2" fill-opacity="0.187321"/>
<path fill-rule="evenodd" clip-rule="evenodd" d="M31 32H17V33C17 33.5523 16.5523 34 16 34H15C14.4477 34 14 33.5523 14 33V23L16.48 17.212C16.7955 16.4761 17.5194 15.9993 18.32 16H29.68C30.4799 16.0001 31.2028 16.4768 31.518 17.212L34 23V33C34 33.5523 33.5523 34 33 34H32C31.4477 34 31 33.5523 31 33V32ZM32 25H16V30H32V25ZM31.824 23H16.177L18.32 18H29.681L31.824 23ZM18.5 29C17.6716 29 17 28.3284 17 27.5C17 26.6716 17.6716 26 18.5 26C19.3284 26 20 26.6716 20 27.5C20 28.3284 19.3284 29 18.5 29ZM28 27.5C28 28.3284 28.6716 29 29.5 29C30.3284 29 31 28.3284 31 27.5C31 26.6716 30.3284 26 29.5 26C28.6716 26 28 26.6716 28 27.5Z" fill="black"/>
</svg>
