<svg width="48" height="48" viewBox="0 0 48 48" fill="none" xmlns="http://www.w3.org/2000/svg">
<rect width="48" height="48" rx="13" fill="#E4FDFF"/>
<path fill-rule="evenodd" clip-rule="evenodd" d="M24 14L14 19V23H34V19L24 14ZM18 24H16V31H18V24ZM34 34V32H14V34H34ZM21 24H23V31H21V24ZM27 24H25V31H27V24ZM30 24H32V31H30V24ZM16 20.2358V20.9998H32V20.2358L24 16.2358L16 20.2358ZM23 19C23 19.5523 23.4477 20 24 20C24.5523 20 25 19.5523 25 19C25 18.4477 24.5523 18 24 18C23.4477 18 23 18.4477 23 19Z" fill="black"/>
</svg>
