<svg width="48" height="48" viewBox="0 0 48 48" fill="none" xmlns="http://www.w3.org/2000/svg">
<rect width="48" height="48" rx="13" fill="#FF793F" fill-opacity="0.22866"/>
<path fill-rule="evenodd" clip-rule="evenodd" d="M12.757 15.1718L16 18.4138V29.9998C16 30.5521 16.4477 30.9998 17 30.9998H29V28.9998H18V26.9998H30.256C30.6978 26.9999 31.0872 26.71 31.214 26.2868L33.614 18.2868C33.7047 17.9841 33.647 17.6563 33.4583 17.4027C33.2695 17.1492 32.9721 16.9998 32.656 16.9998H17.414L14.172 13.7568L12.757 15.1718ZM18 24.9998V18.9998H31.312L29.512 24.9998H18ZM17.5 34.9998C16.6716 34.9998 16 34.3283 16 33.4998C16 32.6714 16.6716 31.9998 17.5 31.9998C18.3284 31.9998 19 32.6714 19 33.4998C19 34.3283 18.3284 34.9998 17.5 34.9998ZM28 33.4998C28 34.3283 28.6716 34.9998 29.5 34.9998C30.3284 34.9998 31 34.3283 31 33.4998C31 32.6714 30.3284 31.9998 29.5 31.9998C28.6716 31.9998 28 32.6714 28 33.4998Z" fill="black"/>
</svg>
