<svg width="48" height="48" viewBox="0 0 48 48" fill="none" xmlns="http://www.w3.org/2000/svg">
<rect width="48" height="48" rx="13" fill="#0091FF" fill-opacity="0.192779"/>
<path fill-rule="evenodd" clip-rule="evenodd" d="M25 33V35H23V33H15C14.4477 33 14 32.5523 14 32V16C14 15.4477 14.4477 15 15 15H21C22.1482 14.9986 23.2414 15.492 24 16.354C24.7586 15.492 25.8518 14.9986 27 15H33C33.5523 15 34 15.4477 34 16V32C34 32.5523 33.5523 33 33 33H25ZM32 31V17H27C25.8954 17 25 17.8954 25 19V31H32ZM23 19V31H16V17H21C22.1046 17 23 17.8954 23 19Z" fill="black"/>
</svg>
