<svg width="48" height="48" viewBox="0 0 48 48" fill="none" xmlns="http://www.w3.org/2000/svg">
<rect width="48" height="48" rx="13" fill="#0ABDE3" fill-opacity="0.0882457"/>
<path fill-rule="evenodd" clip-rule="evenodd" d="M24 14C27.0017 13.997 29.8454 15.3452 31.743 17.671L25.414 24L31.743 30.329C29.8454 32.6549 27.0017 34.0031 24 34C18.477 34 14 29.523 14 24C14 18.477 18.477 14 24 14ZM24 16C20.5354 16.0006 17.4649 18.2313 16.3935 21.5261C15.3222 24.8209 16.4934 28.4309 19.2951 30.4692C22.0967 32.5074 25.892 32.5105 28.697 30.477L28.905 30.32L22.585 24L28.905 17.679L28.697 17.523C27.4158 16.5916 25.8859 16.0634 24.303 16.006L24 16ZM25.5 18.5C25.5 17.6716 24.8284 17 24 17C23.1716 17 22.5 17.6716 22.5 18.5C22.5 19.3284 23.1716 20 24 20C24.8284 20 25.5 19.3284 25.5 18.5Z" fill="black"/>
</svg>
