<svg width="48" height="48" viewBox="0 0 48 48" fill="none" xmlns="http://www.w3.org/2000/svg">
<rect width="48" height="48" rx="13" fill="#FF7979" fill-opacity="0.135075"/>
<path fill-rule="evenodd" clip-rule="evenodd" d="M12.8895 16.1238L17.197 18.9735L18.359 29.6353L32.6922 26.9805L32.8958 28.8485L17.5399 31.6927C16.9748 31.7974 16.4705 31.4639 16.4143 30.9483L15.2349 20.1259L11.584 17.7139L12.8885 16.1239L12.8895 16.1238ZM20.4256 34.0266C20.341 33.249 19.5822 32.746 18.7318 32.9037C17.8815 33.0615 17.26 33.8206 17.3446 34.5983C17.4292 35.3759 18.188 35.8789 19.0384 35.7212C19.8887 35.5634 20.5102 34.8043 20.4256 34.0266ZM33.2991 32.2176C33.2145 31.44 32.4557 30.9369 31.6053 31.0947C30.755 31.2524 30.1334 32.0116 30.218 32.7892C30.3026 33.5668 31.0615 34.0699 31.9118 33.9121C32.7622 33.7544 33.3837 32.9952 33.2991 32.2176ZM28.147 15.5304C28.0908 15.014 27.586 14.6799 27.0202 14.7848L22.9207 15.5446C22.3549 15.6494 21.9414 16.1536 21.9976 16.6701L22.2004 18.5414L19.1339 19.1097C18.5631 19.2155 18.1472 19.7173 18.2032 20.2319L19.0194 27.7258C19.0743 28.23 19.582 28.5712 20.1529 28.4654L32.4373 26.1887C33.0081 26.0829 33.424 25.5811 33.368 25.0665L32.5518 17.5726C32.4969 17.0684 31.9892 16.7272 31.4183 16.833L28.3508 17.4015L28.147 15.5304ZM21.6115 20.3171L20.4725 20.5174L21.1582 26.3984L22.2971 26.198L21.6115 20.3171ZM23.4434 20.2569L27.6168 19.482L28.2394 25.206L24.066 25.9809L23.4434 20.2569ZM30.5239 19.0646L29.385 19.2649L30.0706 25.1454L31.2095 24.9451L30.5239 19.0646ZM24.0161 17.0172L26.0352 16.6505L26.1358 17.5526L24.1167 17.9193L24.0161 17.0172Z" fill="black"/>
</svg>
