<svg width="48" height="48" viewBox="0 0 48 48" fill="none" xmlns="http://www.w3.org/2000/svg">
<rect width="48" height="48" rx="13" fill="#F0932B" fill-opacity="0.171978"/>
<path fill-rule="evenodd" clip-rule="evenodd" d="M14 33.0001V31.0001H16V16.8351C16 16.3511 16.346 15.9371 16.821 15.8511L26.293 14.1291C26.619 14.0691 26.931 14.2861 26.99 14.6121C26.997 14.6471 27 14.6821 27 14.7191V15.9991L31 16.0001C31.552 16.0001 32 16.4481 32 17.0001V31.0001H34V33.0001H30V18.0001H27V33.0001H14ZM25 16.396L18 17.67V31H25V16.396ZM24 25V23H22V25H24Z" fill="black"/>
</svg>
