<svg width="48" height="48" viewBox="0 0 48 48" fill="none" xmlns="http://www.w3.org/2000/svg">
<rect width="48" height="48" rx="13" fill="#CCAE62" fill-opacity="0.0811751"/>
<path fill-rule="evenodd" clip-rule="evenodd" d="M32 32V34H24C18.477 34 14 29.523 14 24C14 18.477 18.477 14 24 14C29.523 14 34 18.477 34 24C34.0032 26.1642 33.3011 28.2705 32 30H29.292C32.1898 27.4444 32.847 23.1829 30.8538 19.873C28.8606 16.563 24.7865 15.1507 21.1723 16.5166C17.5581 17.8825 15.4365 21.6364 16.1307 25.4372C16.8248 29.2381 20.1363 31.9998 24 32H32ZM24 22C22.8954 22 22 21.1046 22 20C22 18.8954 22.8954 18 24 18C25.1046 18 26 18.8954 26 20C26 21.1046 25.1046 22 24 22ZM18 24C18 25.1046 18.8954 26 20 26C21.1046 26 22 25.1046 22 24C22 22.8954 21.1046 22 20 22C18.8954 22 18 22.8954 18 24ZM28 26C26.8954 26 26 25.1046 26 24C26 22.8954 26.8954 22 28 22C29.1046 22 30 22.8954 30 24C30 25.1046 29.1046 26 28 26ZM22 28C22 29.1046 22.8954 30 24 30C25.1046 30 26 29.1046 26 28C26 26.8954 25.1046 26 24 26C22.8954 26 22 26.8954 22 28Z" fill="black"/>
</svg>
