<svg width="48" height="48" viewBox="0 0 48 48" fill="none" xmlns="http://www.w3.org/2000/svg">
<rect width="48" height="48" rx="13" fill="#E7EBED"/>
<path fill-rule="evenodd" clip-rule="evenodd" d="M15.999 14C15.447 14 15 14.444 15 14.992V33.008C15.0044 33.5544 15.4466 33.9962 15.993 34H32.007C32.2722 33.9981 32.5258 33.891 32.7121 33.7022C32.8983 33.5133 33.0019 33.2582 33 32.993V19L28 14H15.999ZM27 16H17V32H31V20H27V16ZM20.595 23.189C20.4682 23.7226 20.4682 24.2784 20.595 24.812L19.603 25.384L20.603 27.116L21.595 26.543C21.9932 26.9201 22.4745 27.1983 23 27.355V28.5H25V27.355C25.5256 27.1983 26.0069 26.9201 26.405 26.543L27.397 27.116L28.397 25.384L27.405 24.811C27.5317 24.2777 27.5317 23.7223 27.405 23.189L28.397 22.616L27.397 20.884L26.405 21.457C26.012 21.085 25.532 20.803 25 20.645V19.5H23V20.645C22.4745 20.8017 21.9932 21.0799 21.595 21.457L20.603 20.884L19.603 22.616L20.595 23.189ZM25.5 24C25.5 24.8284 24.8284 25.5 24 25.5C23.1716 25.5 22.5 24.8284 22.5 24C22.5 23.1716 23.1716 22.5 24 22.5C24.8284 22.5 25.5 23.1716 25.5 24Z" fill="black"/>
</svg>
