<svg width="48" height="48" viewBox="0 0 48 48" fill="none" xmlns="http://www.w3.org/2000/svg">
<rect width="48" height="48" rx="13" fill="#F2F8FF"/>
<path fill-rule="evenodd" clip-rule="evenodd" d="M15 16.995C15 15.893 15.893 15 16.995 15H31.005C32.107 15 33 15.893 33 16.995V31.005C33 32.1068 32.1068 33 31.005 33H16.995C15.8932 33 15 32.1068 15 31.005V16.995ZM17 17V31H31V17H17ZM18.2209 29.202C18.7703 29.586 19.3569 29.9136 19.9719 30.18C20.8719 28.864 22.3869 28 24.1019 28C25.7079 27.9985 27.2165 28.7696 28.1559 30.072C28.7635 29.789 29.3411 29.4456 29.8799 29.047C28.6189 27.207 26.5019 26 24.1019 26C21.7248 25.9986 19.5098 27.2046 18.2209 29.202ZM24 25C22.7496 25 21.5941 24.3329 20.9689 23.25C20.3437 22.1671 20.3437 20.8329 20.9689 19.75C21.5941 18.6671 22.7496 18 24 18C25.933 18 27.5 19.567 27.5 21.5C27.5 23.433 25.933 25 24 25ZM25.5 21.5C25.5 22.3284 24.8284 23 24 23C23.1716 23 22.5 22.3284 22.5 21.5C22.5 20.6716 23.1716 20 24 20C24.8284 20 25.5 20.6716 25.5 21.5Z" fill="black"/>
</svg>
