<svg width="48" height="48" viewBox="0 0 48 48" fill="none" xmlns="http://www.w3.org/2000/svg">
<rect width="48" height="48" rx="13" fill="#FFDBDB"/>
<path fill-rule="evenodd" clip-rule="evenodd" d="M20.965 30C20.7192 31.7248 19.2423 33.0063 17.5 33.0063C15.7577 33.0063 14.2808 31.7248 14.035 30H13V18C13 17.4477 13.4477 17 14 17H28C28.5523 17 29 17.4477 29 18V20H32L35 24.056V30H32.965C32.7192 31.7248 31.2423 33.0063 29.5 33.0063C27.7577 33.0063 26.2808 31.7248 26.035 30H20.965ZM27 19H15V27.05C15.8008 26.2325 16.9507 25.8581 18.0794 26.0474C19.208 26.2367 20.1728 26.9659 20.663 28H26.337C26.505 27.647 26.73 27.326 27 27.05V19ZM33 25H29V22H30.992L33 24.715V25ZM29.5 31C30.3287 31 31.0005 30.3282 31.0005 29.4995C31.0005 28.6708 30.3287 27.999 29.5 27.999C28.6713 27.999 27.9995 28.6708 27.9995 29.4995C27.9995 30.3282 28.6713 31 29.5 31ZM18.25 28.201C18.7141 28.4689 19 28.9641 19 29.5C19 30.3284 18.3284 31 17.5 31C16.6716 31 16 30.3284 16 29.5C16 28.9641 16.2859 28.4689 16.75 28.201C17.2141 27.933 17.7859 27.933 18.25 28.201Z" fill="black"/>
</svg>
