<svg width="48" height="48" viewBox="0 0 48 48" fill="none" xmlns="http://www.w3.org/2000/svg">
<rect width="48" height="48" rx="13" fill="#BE2EDD" fill-opacity="0.127922"/>
<path fill-rule="evenodd" clip-rule="evenodd" d="M30 35H28V34H20V35H18V34H17C15.895 34 15 33.105 15 32V19C15 17.895 15.895 17 17 17H20V15C20 14.448 20.448 14 21 14H27C27.552 14 28 14.448 28 15V17H31C32.105 17 33 17.895 33 19V32C33 33.105 32.105 34 31 34H30V35ZM31 19H17V32H31V19ZM22 30V21H20V30H22ZM28 21V30H26V21H28ZM22 16H26V17H22V16Z" fill="black"/>
</svg>
